<?xml version="1.0" encoding="UTF-8"?>
<svg width="37px" height="43px" viewBox="0 0 37 43" version="1.1" xmlns="http://www.w3.org/2000/svg" xmlns:xlink="http://www.w3.org/1999/xlink">
    <!-- Generator: Sketch 52.5 (67469) - http://www.bohemiancoding.com/sketch -->
    <title>drupal 8 logo isolated grayscale H:43px</title>
    <desc>Created with Sketch.</desc>
    <g id="drupal-8-logo-isolated-grayscale-H:43px" stroke="none" stroke-width="1" fill="none" fill-rule="evenodd">
        <g id="drupal-8-logo-isolated" fill="#9B9B9B">
            <path d="M17.4125,26.6343284 C13.775,26.6343284 10.825,29.6635821 10.825,33.398806 C10.825,37.1340299 13.775,40.1632836 17.4125,40.1632836 C21.05,40.1632836 24,37.1340299 24,33.398806 C24,29.6635821 21.05,26.6343284 17.4125,26.6343284 Z" id="Path"></path>
            <path d="M25.6125,25.3379104 C27.5625,27.4301493 28.7625,30.2668657 28.7625,33.398806 C28.7625,37.3650746 26.8375,40.8564179 23.9,42.9614925 C29.3375,41.2414925 33.8375,37.0441791 35.85,31.961194 C38.6375,24.9271642 36.0375,19.638806 31.6875,14.838209 C31.825,15.4543284 31.9,16.1089552 31.9,16.7635821 C31.8875,20.8453731 29.2375,24.2725373 25.6125,25.3379104 Z" id="Path"></path>
            <path d="M18.1625,16.7764179 C18.1625,19.638806 20.425,21.9492537 23.2,21.9492537 C25.975,21.9492537 28.25,19.6259701 28.25,16.7764179 C28.25,13.9140299 25.9875,11.6035821 23.2125,11.6035821 C20.4375,11.6035821 18.1625,13.9140299 18.1625,16.7764179 Z" id="Path"></path>
            <path d="M8.725,40.9077612 C7.0625,38.8797015 6.0625,36.261194 6.0625,33.398806 C6.0625,27.4301493 10.425,22.5140299 16.0625,21.8337313 C15.1,20.3961194 14.525,18.6504478 14.525,16.7764179 C14.525,11.8474627 18.4125,7.86835821 23.2125,7.86835821 C23.6125,7.86835821 24,7.89402985 24.375,7.94537313 C21.5375,5.42955224 18.7,2.87522388 16.4625,0.0898507463 C17.6,12.3095522 5.625,7.86835821 1.1875,19.138209 C-1.775,26.6856716 0.9,36.0173134 8.725,40.9077612 Z" id="Path"></path>
        </g>
    </g>
</svg>